<svg xmlns="http://www.w3.org/2000/svg" xmlns:xlink="http://www.w3.org/1999/xlink" width="193.24" height="63.915" viewBox="0 0 193.24 63.915"><defs><filter id="a" x="0" y="16.835" width="193.24" height="47.08" filterUnits="userSpaceOnUse"><feOffset dy="6" input="SourceAlpha"/><feGaussianBlur stdDeviation="4.5" result="b"/><feFlood flood-opacity="0.502"/><feComposite operator="in" in2="b"/><feComposite in="SourceGraphic"/></filter><filter id="c" x="45.098" y="2.937" width="23.619" height="20.918" filterUnits="userSpaceOnUse"><feOffset input="SourceAlpha"/><feGaussianBlur stdDeviation="2" result="d"/><feFlood flood-opacity="0.502"/><feComposite operator="in" in2="d"/><feComposite in="SourceGraphic"/></filter><filter id="e" x="57.356" y="5.167" width="20.748" height="18.68" filterUnits="userSpaceOnUse"><feOffset input="SourceAlpha"/><feGaussianBlur stdDeviation="2" result="f"/><feFlood flood-opacity="0.502"/><feComposite operator="in" in2="f"/><feComposite in="SourceGraphic"/></filter><filter id="g" x="66.903" y="5.163" width="20.14" height="18.682" filterUnits="userSpaceOnUse"><feOffset input="SourceAlpha"/><feGaussianBlur stdDeviation="2" result="h"/><feFlood flood-opacity="0.502"/><feComposite operator="in" in2="h"/><feComposite in="SourceGraphic"/></filter><filter id="i" x="75.639" y="5.167" width="19.818" height="18.682" filterUnits="userSpaceOnUse"><feOffset input="SourceAlpha"/><feGaussianBlur stdDeviation="2" result="j"/><feFlood flood-opacity="0.502"/><feComposite operator="in" in2="j"/><feComposite in="SourceGraphic"/></filter><filter id="k" x="84.246" y="5.167" width="20.617" height="18.681" filterUnits="userSpaceOnUse"><feOffset input="SourceAlpha"/><feGaussianBlur stdDeviation="2" result="l"/><feFlood flood-opacity="0.502"/><feComposite operator="in" in2="l"/><feComposite in="SourceGraphic"/></filter><filter id="m" x="93.471" y="5.167" width="20.447" height="18.681" filterUnits="userSpaceOnUse"><feOffset input="SourceAlpha"/><feGaussianBlur stdDeviation="2" result="n"/><feFlood flood-opacity="0.502"/><feComposite operator="in" in2="n"/><feComposite in="SourceGraphic"/></filter><filter id="o" x="163.518" y="5.167" width="20.45" height="18.681" filterUnits="userSpaceOnUse"><feOffset input="SourceAlpha"/><feGaussianBlur stdDeviation="2" result="p"/><feFlood flood-opacity="0.502"/><feComposite operator="in" in2="p"/><feComposite in="SourceGraphic"/></filter><filter id="q" x="102.391" y="5.167" width="20.751" height="18.681" filterUnits="userSpaceOnUse"><feOffset input="SourceAlpha"/><feGaussianBlur stdDeviation="2" result="r"/><feFlood flood-opacity="0.502"/><feComposite operator="in" in2="r"/><feComposite in="SourceGraphic"/></filter><filter id="s" x="133.867" y="5.167" width="20.617" height="18.681" filterUnits="userSpaceOnUse"><feOffset input="SourceAlpha"/><feGaussianBlur stdDeviation="2" result="t"/><feFlood flood-opacity="0.502"/><feComposite operator="in" in2="t"/><feComposite in="SourceGraphic"/></filter><filter id="u" x="142.804" y="5.167" width="20.751" height="18.681" filterUnits="userSpaceOnUse"><feOffset input="SourceAlpha"/><feGaussianBlur stdDeviation="2" result="v"/><feFlood flood-opacity="0.502"/><feComposite operator="in" in2="v"/><feComposite in="SourceGraphic"/></filter><filter id="w" x="152.179" y="5.167" width="14.229" height="18.681" filterUnits="userSpaceOnUse"><feOffset input="SourceAlpha"/><feGaussianBlur stdDeviation="2" result="x"/><feFlood flood-opacity="0.502"/><feComposite operator="in" in2="x"/><feComposite in="SourceGraphic"/></filter><filter id="y" x="155.223" y="5.167" width="20.129" height="18.682" filterUnits="userSpaceOnUse"><feOffset input="SourceAlpha"/><feGaussianBlur stdDeviation="2" result="z"/><feFlood flood-opacity="0.502"/><feComposite operator="in" in2="z"/><feComposite in="SourceGraphic"/></filter><filter id="aa" x="172.815" y="5.159" width="12.966" height="13.499" filterUnits="userSpaceOnUse"><feOffset input="SourceAlpha"/><feGaussianBlur stdDeviation="2" result="ab"/><feFlood flood-opacity="0.502"/><feComposite operator="in" in2="ab"/><feComposite in="SourceGraphic"/></filter><filter id="ac" x="173.993" y="5.159" width="13.307" height="13.499" filterUnits="userSpaceOnUse"><feOffset input="SourceAlpha"/><feGaussianBlur stdDeviation="2" result="ad"/><feFlood flood-opacity="0.502"/><feComposite operator="in" in2="ad"/><feComposite in="SourceGraphic"/></filter><filter id="ae" x="121.806" y="2.936" width="23.616" height="20.921" filterUnits="userSpaceOnUse"><feOffset input="SourceAlpha"/><feGaussianBlur stdDeviation="2" result="af"/><feFlood flood-opacity="0.502"/><feComposite operator="in" in2="af"/><feComposite in="SourceGraphic"/></filter><filter id="ag" x="110.975" y="0" width="23.613" height="26.92" filterUnits="userSpaceOnUse"><feOffset input="SourceAlpha"/><feGaussianBlur stdDeviation="2" result="ah"/><feFlood flood-opacity="0.502"/><feComposite operator="in" in2="ah"/><feComposite in="SourceGraphic"/></filter><filter id="ai" x="141.867" y="13.745" width="16.18" height="15.542" filterUnits="userSpaceOnUse"><feOffset input="SourceAlpha"/><feGaussianBlur stdDeviation="2" result="aj"/><feFlood flood-opacity="0.502"/><feComposite operator="in" in2="aj"/><feComposite in="SourceGraphic"/></filter><filter id="ak" x="153.526" y="13.746" width="15.574" height="15.543" filterUnits="userSpaceOnUse"><feOffset input="SourceAlpha"/><feGaussianBlur stdDeviation="2" result="al"/><feFlood flood-opacity="0.502"/><feComposite operator="in" in2="al"/><feComposite in="SourceGraphic"/></filter><filter id="am" x="147.812" y="13.745" width="15.934" height="15.544" filterUnits="userSpaceOnUse"><feOffset input="SourceAlpha"/><feGaussianBlur stdDeviation="2" result="an"/><feFlood flood-opacity="0.502"/><feComposite operator="in" in2="an"/><feComposite in="SourceGraphic"/></filter><filter id="ao" x="162.093" y="13.745" width="15.934" height="15.544" filterUnits="userSpaceOnUse"><feOffset input="SourceAlpha"/><feGaussianBlur stdDeviation="2" result="ap"/><feFlood flood-opacity="0.502"/><feComposite operator="in" in2="ap"/><feComposite in="SourceGraphic"/></filter><filter id="aq" x="159.223" y="13.745" width="12.73" height="15.542" filterUnits="userSpaceOnUse"><feOffset input="SourceAlpha"/><feGaussianBlur stdDeviation="2" result="ar"/><feFlood flood-opacity="0.502"/><feComposite operator="in" in2="ar"/><feComposite in="SourceGraphic"/></filter><filter id="as" x="167.931" y="13.742" width="15.528" height="15.545" filterUnits="userSpaceOnUse"><feOffset input="SourceAlpha"/><feGaussianBlur stdDeviation="2" result="at"/><feFlood flood-opacity="0.502"/><feComposite operator="in" in2="at"/><feComposite in="SourceGraphic"/></filter></defs><g transform="translate(-53.41 -73.117)"><g transform="matrix(1, 0, 0, 1, 53.41, 73.12)" filter="url(#a)"><path d="M33.88-4.12a3.7,3.7,0,0,1-.48,2A3.7,3.7,0,0,1,32.08-.88a6.066,6.066,0,0,1-1.9.68,12.416,12.416,0,0,1-2.3.2H7.24A10.959,10.959,0,0,1,4.9-.24,6.2,6.2,0,0,1,2.98-.98a3.853,3.853,0,0,1-1.3-1.28A3.479,3.479,0,0,1,1.2-4.12V-20.04h.76a15.444,15.444,0,0,1,2.3.16,5.992,5.992,0,0,1,1.9.6A3.341,3.341,0,0,1,7.5-18,4.09,4.09,0,0,1,8-15.88V-4.12h6.2v-12.2h.76a14.23,14.23,0,0,1,2.3.18,5.538,5.538,0,0,1,1.92.66,3.53,3.53,0,0,1,1.3,1.32,4.227,4.227,0,0,1,.48,2.12v7.92h6.2V-15.96a4,4,0,0,1,.48-2.08,3.321,3.321,0,0,1,1.3-1.24,5.8,5.8,0,0,1,1.92-.6,16.268,16.268,0,0,1,2.34-.16h.68Zm17-1.8H41.32v2.84H56.44A2.681,2.681,0,0,1,56.1-1.7a2.757,2.757,0,0,1-.96.96,4.629,4.629,0,0,1-1.46.56,8.582,8.582,0,0,1-1.8.18H40.8a6.69,6.69,0,0,1-1.74-.22,4.731,4.731,0,0,1-1.44-.64,3.428,3.428,0,0,1-.98-.98,2.315,2.315,0,0,1-.36-1.28v-8.8a2.345,2.345,0,0,1,.36-1.26,3.124,3.124,0,0,1,.98-.98,5.48,5.48,0,0,1,1.44-.64,6.021,6.021,0,0,1,1.7-.24H51.88a5.941,5.941,0,0,1,3.32.82,2.641,2.641,0,0,1,1.24,2.34H41.32v2.8h9.56ZM74,0V-5.92H63.88v2.36a3.436,3.436,0,0,1-.34,1.68A3.03,3.03,0,0,1,62.52-.84,5.257,5.257,0,0,1,61-.22,7.56,7.56,0,0,1,59.16,0h-.32V-11.72a2.94,2.94,0,0,1,.36-1.5,2.926,2.926,0,0,1,1-1.02,4.944,4.944,0,0,1,1.46-.6,7.323,7.323,0,0,1,1.74-.2H79.08V0Zm0-11.88H63.88v2.8H74Zm27.64,2.8a2.541,2.541,0,0,1-1.52,2.36,8.908,8.908,0,0,1-4.12.8H88.52a4.015,4.015,0,0,1,.16-1.06,3.134,3.134,0,0,1,.5-1.04,2.609,2.609,0,0,1,.92-.76,2.876,2.876,0,0,1,1.34-.3H96.6v-2.8H86.52v8.36A3.033,3.033,0,0,1,85.2-.64a3.761,3.761,0,0,1-1.48.52A12.149,12.149,0,0,1,82,0h-.52V-15.04h15.6a5.961,5.961,0,0,1,3.3.82,2.63,2.63,0,0,1,1.26,2.34ZM124.2-3.04a2.463,2.463,0,0,1-.36,1.36,3.08,3.08,0,0,1-.96.94,4.39,4.39,0,0,1-1.44.56,8.582,8.582,0,0,1-1.8.18H108.52a6.69,6.69,0,0,1-1.74-.22,4.475,4.475,0,0,1-1.42-.64,3.649,3.649,0,0,1-.96-.96,2.218,2.218,0,0,1-.36-1.26v-8.88a2.345,2.345,0,0,1,.36-1.26,3.2,3.2,0,0,1,.96-.98,4.768,4.768,0,0,1,1.42-.62,6.69,6.69,0,0,1,1.74-.22h11.12a6.077,6.077,0,0,1,3.3.8,2.583,2.583,0,0,1,1.26,2.32Zm-5-8.84H109.08v8.8H119.2ZM143.76-.08q-.4,0-.98-.04a7.462,7.462,0,0,1-1.24-.2,6.576,6.576,0,0,1-1.32-.48A4.981,4.981,0,0,1,139-1.64l-5.36-5.04-2-1.88V-.08H126.6V-15.04h1.04q.4,0,1,.04a6.072,6.072,0,0,1,1.24.22,9.957,9.957,0,0,1,1.32.48,4.071,4.071,0,0,1,1.24.86l5.32,5.04q.04.04.34.3t.78.72q.48.46.88.78V-12a2.462,2.462,0,0,1,1.28-2.32,6.732,6.732,0,0,1,3.32-.72h.4V-.08Zm23.68-3.04a2.58,2.58,0,0,1-1.32,2.38,6.8,6.8,0,0,1-3.48.78H151.96a7.833,7.833,0,0,1-1.78-.2,5.172,5.172,0,0,1-1.52-.6,3.645,3.645,0,0,1-1.08-.98,2.225,2.225,0,0,1-.42-1.34h15.28V-5.92H151.72a7.149,7.149,0,0,1-1.7-.2,4.944,4.944,0,0,1-1.46-.6,3.265,3.265,0,0,1-1.02-.98,2.461,2.461,0,0,1-.38-1.38V-11.6a3.032,3.032,0,0,1,.38-1.54,3.163,3.163,0,0,1,1.02-1.08,4.642,4.642,0,0,1,1.46-.62,7.323,7.323,0,0,1,1.74-.2h10.92a6.978,6.978,0,0,1,3.46.74,2.569,2.569,0,0,1,1.3,2.42H152.32v2.8h10.32a9.714,9.714,0,0,1,1.78.16,5.105,5.105,0,0,1,1.52.52,3.208,3.208,0,0,1,1.08.94,2.225,2.225,0,0,1,.42,1.34Z" transform="translate(12.3 44.37)" fill="#fff"/></g><g transform="translate(104.508 79.117)"><g transform="matrix(1, 0, 0, 1, -51.1, -6)" filter="url(#c)"><path d="M65.912,64.185H63.045v1.743l-5.719,0V60.855h5.719v1.587h.962c1.428,0,1.9-.772,1.9-1.756h0c0-.986-.474-1.753-1.9-1.753H56.2a1.907,1.907,0,0,0-1.907,1.9v5.11a1.906,1.906,0,0,0,1.907,1.9h7.808a1.9,1.9,0,0,0,1.9-1.9V64.185Z" transform="translate(-3.2 -50)" fill="#555"/></g><g transform="matrix(1, 0, 0, 1, -51.1, -6)" filter="url(#e)"><path d="M83.086,63.972A1.39,1.39,0,0,0,81.7,62.581H75.729a1.389,1.389,0,0,0-1.391,1.388v3.9a1.391,1.391,0,0,0,1.39,1.394h5.966a1.391,1.391,0,0,0,1.391-1.392h0v0h0Zm-2.227,3.856h-4.3V64.011h4.3Z" transform="translate(-10.98 -51.41)" fill="#555"/></g><g transform="matrix(1, 0, 0, 1, -51.1, -6)" filter="url(#g)"><path d="M98.091,62.574l-2.227,0v5.248H92.177V63.969h0l0,0a1.394,1.394,0,0,0-1.394-1.392h-.832v5.285h0v0a1.392,1.392,0,0,0,1.39,1.394H96.7a1.394,1.394,0,0,0,1.394-1.394h0v0h0V62.583h0Z" transform="translate(-17.05 -51.41)" fill="#555"/></g><g transform="matrix(1, 0, 0, 1, -51.1, -6)" filter="url(#i)"><path d="M111.371,62.581a1.392,1.392,0,0,0-1.392,1.391v0h0v2.655l-3.388-3.652h0l0,0a1.372,1.372,0,0,0-.988-.393h-1.364v6.681h2.247V65.692l3.495,3.568,0,0v0h2.074l0-6.681Z" transform="translate(-22.6 -51.41)" fill="#555"/></g><g transform="matrix(1, 0, 0, 1, -51.1, -6)" filter="url(#k)"><path d="M119.114,62.581h0a.8.8,0,0,0-.8.794h0v.479H121.5l0,5.408h2.244l0-3.565V63.854h2.39a.8.8,0,0,0,.8-.8v-.476Z" transform="translate(-28.07 -51.41)" fill="#555"/></g><g transform="matrix(1, 0, 0, 1, -51.1, -6)" filter="url(#m)"><path d="M141.846,63.972a1.391,1.391,0,0,0-1.392-1.391h-5.661a1.39,1.39,0,0,0-1.394,1.387v.007h0v3.891h0v0a1.392,1.392,0,0,0,1.391,1.394h5.662a1.394,1.394,0,0,0,1.394-1.394h0v0h0v-.037h-6.22V66.636h5.57v-1.43h-5.57V64.011h6.22v-.037h0Z" transform="translate(-33.93 -51.41)" fill="#555"/></g><g transform="matrix(1, 0, 0, 1, -51.1, -6)" filter="url(#o)"><path d="M256.4,63.972A1.393,1.393,0,0,0,255,62.581h-5.664a1.39,1.39,0,0,0-1.392,1.388v.006h0v3.891h0v0a1.392,1.392,0,0,0,1.39,1.394H255a1.4,1.4,0,0,0,1.394-1.394v0h0v-.037h-6.225V66.636h5.576v-1.43h-5.576V64.011H256.4v-.037h0Z" transform="translate(-78.43 -51.41)" fill="#555"/></g><g transform="matrix(1, 0, 0, 1, -51.1, -6)" filter="url(#q)"><path d="M156.737,63.97a1.391,1.391,0,0,0-1.394-1.389h-7.357v6.681h2.225v-5.25h4.3v1.147h-3.361l3.172,4.1h2.415l-2.068-2.673h.675a1.4,1.4,0,0,0,1.394-1.394l0,0h0V63.975h0Z" transform="translate(-39.59 -51.41)" fill="#555"/></g><g transform="matrix(1, 0, 0, 1, -51.1, -6)" filter="url(#s)"><path d="M200.257,62.581h0a.8.8,0,0,0-.8.792v.481h3.184v5.408h2.247V63.854h2.387a.8.8,0,0,0,.8-.8v-.476Z" transform="translate(-59.59 -51.41)" fill="#555"/></g><g transform="matrix(1, 0, 0, 1, -51.1, -6)" filter="url(#u)"><path d="M222.824,63.97a1.389,1.389,0,0,0-1.389-1.389h-7.361v6.681H216.3v-5.25h4.3v1.147h-3.361l3.174,4.1h2.415l-2.069-2.673h.678a1.394,1.394,0,0,0,1.392-1.394v-.005h0V63.974h0Z" transform="translate(-65.27 -51.41)" fill="#555"/></g><g transform="matrix(1, 0, 0, 1, -51.1, -6)" filter="url(#w)"><path d="M231.634,62.581H229.4v6.681h.835a1.394,1.394,0,0,0,1.394-1.394h0l0,0h0Z" transform="translate(-71.23 -51.41)" fill="#555"/></g><g transform="matrix(1, 0, 0, 1, -51.1, -6)" filter="url(#y)"><path d="M242.512,69.262l-3.835-3.42h-.014L242,62.581h-2.415l-2.975,2.907,0-2.907h-2.229v6.681h.835a1.394,1.394,0,0,0,1.392-1.394v0h0V66.152l3.482,3.111Z" transform="translate(-73.16 -51.41)" fill="#555"/></g><g transform="matrix(1, 0, 0, 1, -51.1, -6)" filter="url(#aa)"><path d="M263.532,62.748h-.381v-.181h.966v.18h-.381v1.319h-.2Z" transform="translate(-84.34 -51.41)" fill="#555"/></g><g transform="matrix(1, 0, 0, 1, -51.1, -6)" filter="url(#ac)"><path d="M265.275,64.066h-.2v-1.5h.289l.367,1.276h0l.362-1.276h.289v1.5h-.2V62.8h0l-.358,1.266h-.18l-.375-1.266h0Z" transform="translate(-85.08 -51.41)" fill="#555"/></g><g transform="matrix(1, 0, 0, 1, -51.1, -6)" filter="url(#ae)"><path d="M191.351,64.337a1.9,1.9,0,0,0-1.9-1.9h-6.685V60.855h8.573c0-.056,0-.112,0-.17h0c0-.986-.467-1.753-1.894-1.753h-7.811a1.9,1.9,0,0,0-1.9,1.9v1.617a1.9,1.9,0,0,0,1.9,1.9h6.846v1.571l-8.751,0v.017a1.9,1.9,0,0,0,1.9,1.9h7.81a1.9,1.9,0,0,0,1.9-1.9V64.337Z" transform="translate(-51.93 -50)" fill="#555"/></g><g transform="matrix(1, 0, 0, 1, -51.1, -6)" filter="url(#ag)"><path d="M171.829,56.917h1.807v-.486H173.4v-.5l-.36,0v.182l-1.455,0v-.308h-.281v.308h-.914a.424.424,0,0,1-.41-.316h-1.277s-.083.249-.253.3l-.136-.031a1.727,1.727,0,0,0,.136-.394.8.8,0,0,0,.027-.226l.214,0a.488.488,0,0,0-.1-.312,1.284,1.284,0,0,0-1.26-1,1.131,1.131,0,0,0-1.214,1.043v.009c-.01.165-.007.243-.007.386l.046.382-.386.046a1.57,1.57,0,0,0-.955,1.36,6.126,6.126,0,0,0-.1,1.746,10.672,10.672,0,0,0-.248,1.652,15.041,15.041,0,0,1-.277,1.911,20.577,20.577,0,0,0-.649,2.176,1.6,1.6,0,0,1-.682.886l-.015.092a3.686,3.686,0,0,1-.714,1.062c-.319.464.184.571.184.571a.815.815,0,0,0,.53.808h.7c.449-.041.012-.372.012-.372-.277-.172-.226-.692-.226-.692a2.113,2.113,0,0,0,1.605-1.193,4.966,4.966,0,0,1,.662-1.77,5.165,5.165,0,0,0,.617-1.48,7.785,7.785,0,0,1,2.127,2.673l.041.545a1.927,1.927,0,0,0,.442.991,1.333,1.333,0,0,1,.16.824s.015.668.374.848a1.528,1.528,0,0,0,.734.413h.658s.432-.234.042-.792a3.564,3.564,0,0,0-.85-.7s-.216-.216-.065-.721c0,0,.284-.187.273-.345l.01-.517a4.554,4.554,0,0,0-.993-2.567,1.344,1.344,0,0,1-.3-.765,2.815,2.815,0,0,0-1.183-1.649s-.3-.207-.19-.984a4.444,4.444,0,0,0,.429-1.153,7.341,7.341,0,0,0,1.142-.16s.141.02.835-.49a.489.489,0,0,1,.35-.177,1.226,1.226,0,0,0,.685-.326,7.9,7.9,0,0,0,.471,1.219l.58,0a12.735,12.735,0,0,1-.534-1.5A2.1,2.1,0,0,0,171.829,56.917Zm-2.559.151a2.725,2.725,0,0,0-.809.355l-.452.007c0-.4.5-.506.5-.506h1.03a.34.34,0,0,1-.265.144Z" transform="translate(-45.05 -48.13)" fill="#555"/></g><g transform="matrix(1, 0, 0, 1, -51.1, -6)" filter="url(#ai)"><path d="M216.116,76.608h-2.973a.6.6,0,0,0-.6.6v2.34a.6.6,0,0,0,.6.6h2.973a.6.6,0,0,0,.6-.6V77.21a.6.6,0,0,0-.6-.6Zm-.122,2.426a.4.4,0,0,1-.4.4h-1.94a.394.394,0,0,1-.39-.4V77.723a.393.393,0,0,1,.39-.393h1.94a.4.4,0,0,1,.4.393Z" transform="translate(-64.67 -56.86)" fill="#555" opacity="0.4"/></g><g transform="matrix(1, 0, 0, 1, -51.1, -6)" filter="url(#ak)"><path d="M234.979,79.421l-2.376,0c-.182,0-.259-.083-.259-.262l0-2.351a.2.2,0,0,0-.2-.2h-.325a.2.2,0,0,0-.2.2l0,3.019a.325.325,0,0,0,.325.323h3.043a.2.2,0,0,0,.2-.2v-.327a.2.2,0,0,0-.2-.2Z" transform="translate(-72.08 -56.86)" fill="#555" opacity="0.4"/></g><g transform="matrix(1, 0, 0, 1, -51.1, -6)" filter="url(#am)"><path d="M226.2,76.81a.2.2,0,0,0-.2-.2h-.321a.2.2,0,0,0-.2.2v2.327l-2.412-2.4a.413.413,0,0,0-.282-.124h-.189a.324.324,0,0,0-.323.323v3.017a.2.2,0,0,0,.2.2h.325a.2.2,0,0,0,.2-.2v0l0-2.324,2.365,2.368a.553.553,0,0,0,.33.161h.185a.325.325,0,0,0,.325-.323Z" transform="translate(-68.45 -56.86)" fill="#555" opacity="0.4"/></g><g transform="matrix(1, 0, 0, 1, -51.1, -6)" filter="url(#ao)"><path d="M249.551,76.81a.2.2,0,0,0-.2-.2h-.323a.2.2,0,0,0-.2.2v2.329l-2.412-2.4a.413.413,0,0,0-.282-.124h-.189a.323.323,0,0,0-.323.323v3.017a.2.2,0,0,0,.2.2h.323a.2.2,0,0,0,.2-.2v0l0-2.324,2.368,2.368a.544.544,0,0,0,.325.161h.19a.325.325,0,0,0,.323-.323Z" transform="translate(-77.52 -56.86)" fill="#555" opacity="0.4"/></g><g transform="matrix(1, 0, 0, 1, -51.1, -6)" filter="url(#aq)"><path d="M240.956,76.608h.665a.032.032,0,0,1,.032.032v3.477a.033.033,0,0,1-.032.032h-.664a.034.034,0,0,1-.033-.032V76.64A.032.032,0,0,1,240.956,76.608Z" transform="translate(-75.7 -56.86)" fill="#555" opacity="0.4"/></g><g transform="matrix(1, 0, 0, 1, -51.1, -6)" filter="url(#as)"><path d="M256.155,77.337h2.337a.2.2,0,0,0,.2-.2v-.328a.2.2,0,0,0-.2-.2h-2.146v0h-.86a.323.323,0,0,0-.323.323v2.9a.323.323,0,0,0,.323.323h3a.2.2,0,0,0,.2-.2v-.328a.2.2,0,0,0-.2-.2h-2.146v0h-.2c-.18,0-.26-.083-.26-.262V78.74h1.495a.2.2,0,0,0,.2-.2v-.321a.2.2,0,0,0-.2-.2h-1.5v-.417C255.9,77.417,255.975,77.337,256.155,77.337Z" transform="translate(-81.23 -56.86)" fill="#555" opacity="0.4"/></g></g></g></svg>